<svg width="current" height="current" viewBox="0 0 280 49" fill="none" xmlns="http://www.w3.org/2000/svg">
<g clip-path="url(#clip0_494_2178)">
<path d="M95.0998 37.6151C93.1556 37.6151 91.3171 37.1925 89.5843 36.3472C87.8937 35.5019 86.5201 34.3819 85.4635 32.9872C84.4492 31.5502 83.942 30.0076 83.942 28.3593H88.8869C88.8869 28.4438 88.9081 28.7608 88.9503 29.3102C88.9926 29.8596 89.1828 30.4725 89.5209 31.1487C89.859 31.8249 90.4507 32.4166 91.296 32.9238C92.1835 33.4309 93.4303 33.6845 95.0364 33.6845C96.8115 33.6845 98.2484 33.3676 99.3473 32.7336C100.446 32.0996 100.996 31.2121 100.996 30.0709C100.996 29.0143 100.594 28.1902 99.7911 27.5985C98.9881 27.0068 97.9526 26.5419 96.6847 26.2038C95.4167 25.8234 94.0643 25.4642 92.6273 25.126C91.2326 24.7879 89.9013 24.3442 88.6333 23.7947C87.4077 23.203 86.3933 22.4211 85.5903 21.4491C84.8296 20.4347 84.4703 19.0823 84.5126 17.3917C84.5126 15.1094 85.4635 13.3555 87.3654 12.1298C89.3096 10.8619 91.7609 10.2279 94.7194 10.2279C96.6213 10.2279 98.4386 10.5449 100.171 11.1789C101.904 11.7706 103.32 12.7426 104.419 14.0951C105.56 15.4476 106.11 17.2649 106.067 19.5472H101.186C101.228 18.1102 100.89 17.0325 100.171 16.314C99.4952 15.5532 98.6499 15.046 97.6356 14.7925C96.6213 14.4966 95.6703 14.3487 94.7828 14.3487C93.0922 14.3487 91.7609 14.6657 90.7888 15.2996C89.8167 15.8913 89.3307 16.6943 89.3307 17.7087C89.3307 18.8076 89.7322 19.6528 90.5352 20.2445C91.3382 20.794 92.3737 21.2589 93.6416 21.6393C94.9096 21.9774 96.2409 22.3155 97.6356 22.6536C99.0726 22.9917 100.425 23.4355 101.693 23.9849C102.961 24.5343 103.996 25.3162 104.799 26.3306C105.645 27.3449 106.067 28.6974 106.067 30.3879C106.067 32.8815 105.032 34.72 102.961 35.9034C100.89 37.0445 98.2696 37.6151 95.0998 37.6151ZM122.371 37.6151C119.455 37.6151 117.067 36.9811 115.208 35.7132C113.348 34.403 111.975 32.7336 111.087 30.7049C110.199 28.6762 109.756 26.5419 109.756 24.3019C109.713 21.8083 110.178 19.5472 111.15 17.5185C112.165 15.4898 113.602 13.8838 115.461 12.7004C117.363 11.517 119.624 10.9253 122.245 10.9253C124.485 10.9253 126.492 11.4325 128.267 12.4468C130.085 13.4189 131.522 14.8136 132.579 16.6309C133.635 18.406 134.206 20.5193 134.29 22.9706C134.29 23.0974 134.29 23.3509 134.29 23.7313C134.333 24.0694 134.354 24.3653 134.354 24.6189H114.764C114.764 27.3238 115.419 29.437 116.729 30.9585C118.082 32.4377 119.941 33.1774 122.308 33.1774C124.083 33.1774 125.584 32.7336 126.809 31.846C128.077 30.9162 128.859 29.6906 129.155 28.1691H134.29C133.91 30.874 132.684 33.1351 130.613 34.9525C128.542 36.7276 125.795 37.6151 122.371 37.6151ZM114.954 22.0196H129.028C128.986 21.5547 128.859 20.9419 128.648 20.1811C128.436 19.4204 128.077 18.6808 127.57 17.9623C127.105 17.2015 126.429 16.5676 125.541 16.0604C124.654 15.5532 123.513 15.2996 122.118 15.2996C120.385 15.2996 119.011 15.68 117.997 16.4408C117.025 17.1593 116.285 18.0468 115.778 19.1034C115.313 20.1177 115.039 21.0898 114.954 22.0196ZM140.188 36.9811V1.28906H145.386V36.9811H140.188ZM151.703 36.9811V1.28906H156.902V36.9811H151.703ZM177.737 37.6151C176.088 37.6151 174.694 37.3615 173.552 36.8543C172.454 36.3049 171.545 35.6709 170.826 34.9525C170.15 34.234 169.643 33.5789 169.305 32.9872C169.009 32.3532 168.819 31.9517 168.734 31.7826H168.608V48.0755H163.219V11.0521H167.783L168.671 17.1381H168.798C168.84 16.9691 169.009 16.5676 169.305 15.9336C169.601 15.2996 170.087 14.6023 170.763 13.8415C171.439 13.0808 172.327 12.4257 173.426 11.8762C174.567 11.3268 175.983 11.0521 177.673 11.0521C181.477 11.0521 184.288 12.2989 186.105 14.7925C187.922 17.286 188.831 20.4981 188.831 24.4287C188.831 28.3593 187.901 31.5502 186.042 34.0015C184.224 36.4106 181.456 37.6151 177.737 37.6151ZM176.342 33.0506C178.202 33.0506 179.66 32.6491 180.716 31.846C181.815 31.0008 182.576 29.923 182.998 28.6128C183.463 27.2604 183.696 25.8445 183.696 24.3653C183.696 22.9283 183.442 21.5547 182.935 20.2445C182.47 18.9343 181.667 17.8777 180.526 17.0747C179.427 16.2294 177.948 15.8068 176.088 15.8068C173.637 15.8068 171.798 16.6098 170.573 18.2159C169.347 19.7796 168.734 21.8294 168.734 24.3653C168.734 26.9857 169.368 29.0989 170.636 30.7049C171.946 32.2687 173.848 33.0506 176.342 33.0506ZM205.148 37.6151C200.837 37.6151 197.625 36.3683 195.511 33.8747C193.398 31.3811 192.342 28.2113 192.342 24.3653C192.299 20.477 193.356 17.286 195.511 14.7925C197.667 12.2989 200.879 11.0309 205.148 10.9887C209.289 10.9887 212.438 12.2143 214.594 14.6657C216.749 17.117 217.827 20.3502 217.827 24.3653C217.827 26.8589 217.362 29.12 216.432 31.1487C215.545 33.1351 214.15 34.72 212.248 35.9034C210.388 37.0445 208.022 37.6151 205.148 37.6151ZM205.148 33.114C207.176 33.114 208.719 32.6702 209.775 31.7826C210.874 30.8951 211.635 29.7751 212.058 28.4226C212.48 27.0279 212.692 25.6121 212.692 24.1751C212.692 22.7381 212.48 21.3434 212.058 19.9909C211.635 18.5962 210.874 17.4551 209.775 16.5676C208.719 15.6377 207.176 15.1728 205.148 15.1728C203.077 15.1728 201.492 15.6377 200.393 16.5676C199.294 17.4551 198.533 18.5962 198.111 19.9909C197.688 21.3434 197.477 22.7381 197.477 24.1751C197.477 25.6121 197.688 27.0279 198.111 28.4226C198.533 29.7751 199.294 30.8951 200.393 31.7826C201.492 32.6702 203.077 33.114 205.148 33.114ZM226.375 8.19925C225.234 8.24152 224.473 7.9668 224.092 7.3751C223.712 6.7834 223.522 6.04378 223.522 5.15623C223.522 4.39548 223.712 3.71925 224.092 3.12755C224.473 2.53586 225.234 2.24001 226.375 2.24001C227.474 2.24001 228.213 2.53586 228.594 3.12755C229.016 3.71925 229.228 4.39548 229.228 5.15623C229.228 6.04378 229.016 6.7834 228.594 7.3751C228.213 7.92454 227.474 8.19925 226.375 8.19925ZM223.712 36.9811V11.0521H228.974V36.9811H223.712ZM234.832 36.9811V11.1155H239.333L240.22 17.0747H240.347C240.389 16.9057 240.558 16.5042 240.854 15.8702C241.15 15.2362 241.636 14.56 242.312 13.8415C242.988 13.0808 243.897 12.4257 245.038 11.8762C246.179 11.3268 247.616 11.0521 249.349 11.0521C251.632 11.0521 253.407 11.4959 254.675 12.3834C255.942 13.2287 256.872 14.3487 257.464 15.7434C258.056 17.0959 258.415 18.5328 258.542 20.0543C258.711 21.5759 258.795 22.9917 258.795 24.3019V36.9811H253.66V24.2385C253.66 22.6325 253.491 21.1955 253.153 19.9276C252.815 18.6174 252.181 17.603 251.251 16.8845C250.364 16.1238 249.053 15.7434 247.321 15.7434C245.545 15.7434 244.13 16.166 243.073 17.0113C242.016 17.8566 241.277 18.9555 240.854 20.3079C240.432 21.6604 240.22 23.0974 240.22 24.6189V36.9811H234.832ZM271.224 36.9811C269.406 36.9811 268.075 36.5162 267.23 35.5864C266.427 34.6566 266.025 33.2408 266.025 31.3389V14.8559H262.031V11.0521C263.341 11.0521 264.313 10.9464 264.947 10.7351C265.624 10.4815 266.067 9.88982 266.279 8.96001C266.532 7.98793 266.659 6.46642 266.659 4.39548H271.033V11.0521H276.993V14.8559H271.033V32.797H277.056V36.9811H271.224Z" fill="black"/>
<path d="M40.9434 1.3208H17.1698V6.60382H40.9434V1.3208Z" fill="black"/>
<path d="M71.3207 1.3208H44.9056V23.7736H71.3207V1.3208Z" fill="black"/>
<path d="M31.6981 33.019H0V38.3021H31.6981V33.019Z" fill="black"/>
<path d="M59.4339 1.3208H44.9056V38.3019H59.4339V1.3208Z" fill="black"/>
<path d="M31.6981 1.3208H17.1698V38.3019H31.6981V1.3208Z" fill="black"/>
</g>
<defs>
<clipPath id="clip0_494_2178">
<rect width="280" height="48.8679" fill="white"/>
</clipPath>
</defs>
</svg>

