<svg width="140" height="25" viewBox="0 0 140 25" fill="none" xmlns="http://www.w3.org/2000/svg">
<g clip-path="url(#clip0_536_4)">
<path d="M47.5498 18.8075C46.5777 18.8075 45.6585 18.5962 44.7921 18.1736C43.9468 17.7509 43.26 17.1909 42.7317 16.4936C42.2245 15.7751 41.9709 15.0038 41.9709 14.1796H44.4434C44.4434 14.2219 44.454 14.3804 44.4751 14.6551C44.4962 14.9298 44.5913 15.2362 44.7604 15.5743C44.9294 15.9125 45.2253 16.2083 45.6479 16.4619C46.0917 16.7155 46.7151 16.8423 47.5181 16.8423C48.4057 16.8423 49.1242 16.6838 49.6736 16.3668C50.223 16.0498 50.4977 15.606 50.4977 15.0355C50.4977 14.5072 50.297 14.0951 49.8955 13.7992C49.494 13.5034 48.9762 13.2709 48.3423 13.1019C47.7083 12.9117 47.0321 12.7321 46.3136 12.563C45.6162 12.394 44.9506 12.1721 44.3166 11.8974C43.7038 11.6015 43.1966 11.2106 42.7951 10.7245C42.4147 10.2174 42.2351 9.54114 42.2562 8.69585C42.2562 7.55472 42.7317 6.67774 43.6826 6.06491C44.6547 5.43095 45.8804 5.11397 47.3596 5.11397C48.3106 5.11397 49.2193 5.27246 50.0857 5.58944C50.9521 5.88529 51.66 6.37132 52.2094 7.04755C52.78 7.72378 53.0547 8.63246 53.0336 9.77359H50.5928C50.614 9.0551 50.4449 8.51623 50.0857 8.15698C49.7476 7.77661 49.3249 7.52302 48.8177 7.39623C48.3106 7.24831 47.8351 7.17434 47.3913 7.17434C46.546 7.17434 45.8804 7.33283 45.3943 7.64981C44.9083 7.94566 44.6653 8.34717 44.6653 8.85434C44.6653 9.40378 44.866 9.82642 45.2676 10.1223C45.6691 10.397 46.1868 10.6294 46.8208 10.8196C47.4547 10.9887 48.1204 11.1577 48.8177 11.3268C49.5362 11.4959 50.2125 11.7177 50.8464 11.9925C51.4804 12.2672 51.9981 12.6581 52.3996 13.1653C52.8223 13.6725 53.0336 14.3487 53.0336 15.194C53.0336 16.4408 52.5159 17.36 51.4804 17.9517C50.4449 18.5223 49.1347 18.8075 47.5498 18.8075ZM61.1857 18.8075C59.7276 18.8075 58.5336 18.4906 57.6038 17.8566C56.674 17.2015 55.9872 16.3668 55.5434 15.3525C55.0996 14.3381 54.8778 13.2709 54.8778 12.1509C54.8566 10.9042 55.0891 9.77359 55.5751 8.75925C56.0823 7.74491 56.8008 6.94189 57.7306 6.35019C58.6815 5.75849 59.8121 5.46265 61.1223 5.46265C62.2423 5.46265 63.2461 5.71623 64.1336 6.2234C65.0423 6.70944 65.7608 7.4068 66.2893 8.31547C66.8176 9.20302 67.1029 10.2596 67.1451 11.4853C67.1451 11.5487 67.1451 11.6755 67.1451 11.8657C67.1663 12.0347 67.1768 12.1826 67.1768 12.3094H57.3819C57.3819 13.6619 57.7095 14.7185 58.3646 15.4792C59.0408 16.2189 59.9706 16.5887 61.154 16.5887C62.0415 16.5887 62.7917 16.3668 63.4046 15.923C64.0385 15.4581 64.4295 14.8453 64.5774 14.0845H67.1451C66.9549 15.437 66.3421 16.5675 65.3064 17.4762C64.271 18.3638 62.8974 18.8075 61.1857 18.8075ZM57.477 11.0098H64.514C64.4929 10.7774 64.4295 10.4709 64.3238 10.0906C64.2181 9.71019 64.0385 9.34038 63.7849 8.98114C63.5525 8.60076 63.2144 8.28378 62.7706 8.03019C62.3268 7.77661 61.7563 7.64981 61.0589 7.64981C60.1925 7.64981 59.5057 7.84 58.9985 8.22038C58.5125 8.57963 58.1427 9.0234 57.8891 9.5517C57.6566 10.0589 57.5193 10.5449 57.477 11.0098ZM70.0937 18.4906V0.644531H72.693V18.4906H70.0937ZM75.8515 18.4906V0.644531H78.4508V18.4906H75.8515ZM88.8682 18.8075C88.0441 18.8075 87.3467 18.6808 86.7762 18.4272C86.2267 18.1525 85.7724 17.8355 85.4131 17.4762C85.075 17.117 84.8215 16.7894 84.6524 16.4936C84.5045 16.1766 84.4094 15.9759 84.3671 15.8913H84.3037V24.0377H81.6094V5.52604H83.8916L84.3354 8.56906H84.3988C84.4199 8.48453 84.5045 8.28378 84.6524 7.9668C84.8003 7.64981 85.0433 7.30114 85.3815 6.92076C85.7196 6.54038 86.1633 6.21283 86.7128 5.93812C87.2833 5.6634 87.9913 5.52604 88.8365 5.52604C90.7384 5.52604 92.1437 6.14944 93.0524 7.39623C93.9611 8.64302 94.4154 10.2491 94.4154 12.2143C94.4154 14.1796 93.9505 15.7751 93.0207 17.0008C92.112 18.2053 90.7279 18.8075 88.8682 18.8075ZM88.1709 16.5253C89.1007 16.5253 89.8298 16.3245 90.3581 15.923C90.9075 15.5004 91.2879 14.9615 91.4992 14.3064C91.7316 13.6302 91.8479 12.9223 91.8479 12.1826C91.8479 11.4642 91.7211 10.7774 91.4675 10.1223C91.235 9.46717 90.8335 8.93887 90.263 8.53736C89.7135 8.11472 88.9739 7.9034 88.0441 7.9034C86.8184 7.9034 85.8992 8.30491 85.2864 9.10793C84.6735 9.88981 84.3671 10.9147 84.3671 12.1826C84.3671 13.4928 84.6841 14.5494 85.3181 15.3525C85.9731 16.1343 86.9241 16.5253 88.1709 16.5253ZM102.574 18.8075C100.418 18.8075 98.8122 18.1842 97.7556 16.9374C96.699 15.6906 96.1707 14.1057 96.1707 12.1826C96.1496 10.2385 96.6779 8.64302 97.7556 7.39623C98.8333 6.14944 100.439 5.51547 102.574 5.49434C104.645 5.49434 106.219 6.10717 107.297 7.33283C108.374 8.55849 108.913 10.1751 108.913 12.1826C108.913 13.4294 108.681 14.56 108.216 15.5743C107.772 16.5675 107.075 17.36 106.124 17.9517C105.194 18.5223 104.011 18.8075 102.574 18.8075ZM102.574 16.557C103.588 16.557 104.359 16.3351 104.888 15.8913C105.437 15.4475 105.817 14.8875 106.029 14.2113C106.24 13.514 106.346 12.806 106.346 12.0876C106.346 11.3691 106.24 10.6717 106.029 9.99547C105.817 9.29812 105.437 8.72755 104.888 8.28378C104.359 7.81887 103.588 7.58642 102.574 7.58642C101.538 7.58642 100.746 7.81887 100.196 8.28378C99.6469 8.72755 99.2665 9.29812 99.0552 9.99547C98.8439 10.6717 98.7382 11.3691 98.7382 12.0876C98.7382 12.806 98.8439 13.514 99.0552 14.2113C99.2665 14.8875 99.6469 15.4475 100.196 15.8913C100.746 16.3351 101.538 16.557 102.574 16.557ZM113.187 4.09963C112.617 4.12076 112.236 3.9834 112.046 3.68755C111.856 3.3917 111.761 3.02189 111.761 2.57812C111.761 2.19774 111.856 1.85963 112.046 1.56378C112.236 1.26793 112.617 1.12 113.187 1.12C113.737 1.12 114.107 1.26793 114.297 1.56378C114.508 1.85963 114.614 2.19774 114.614 2.57812C114.614 3.02189 114.508 3.3917 114.297 3.68755C114.107 3.96227 113.737 4.09963 113.187 4.09963ZM111.856 18.4906V5.52604H114.487V18.4906H111.856ZM117.416 18.4906V5.55774H119.666L120.11 8.53736H120.173C120.195 8.45283 120.279 8.25208 120.427 7.9351C120.575 7.61812 120.818 7.28 121.156 6.92076C121.494 6.54038 121.949 6.21283 122.519 5.93812C123.09 5.6634 123.808 5.52604 124.675 5.52604C125.816 5.52604 126.703 5.74793 127.337 6.1917C127.971 6.61434 128.436 7.17434 128.732 7.8717C129.028 8.54793 129.207 9.26642 129.271 10.0272C129.355 10.7879 129.398 11.4959 129.398 12.1509V18.4906H126.83V12.1192C126.83 11.3162 126.746 10.5977 126.576 9.96378C126.407 9.30868 126.09 8.80151 125.626 8.44227C125.182 8.06189 124.527 7.8717 123.66 7.8717C122.773 7.8717 122.065 8.08302 121.536 8.50566C121.008 8.92831 120.638 9.47774 120.427 10.154C120.216 10.8302 120.11 11.5487 120.11 12.3094V18.4906H117.416ZM135.612 18.4906C134.703 18.4906 134.037 18.2581 133.615 17.7932C133.213 17.3283 133.012 16.6204 133.012 15.6694V7.42793H131.016V5.52604C131.671 5.52604 132.157 5.47321 132.474 5.36755C132.812 5.24076 133.034 4.94491 133.139 4.48C133.266 3.99397 133.329 3.23321 133.329 2.19774H135.517V5.52604H138.496V7.42793H135.517V16.3985H138.528V18.4906H135.612Z" fill="black"/>
<path d="M20.4718 0.660156H8.58496V3.30167H20.4718V0.660156Z" fill="black"/>
<path d="M35.6604 0.660156H22.4529V11.8866H35.6604V0.660156Z" fill="black"/>
<path d="M15.8491 16.5093H0V19.1508H15.8491V16.5093Z" fill="black"/>
<path d="M29.717 0.660156H22.4529V19.1507H29.717V0.660156Z" fill="black"/>
<path d="M15.8491 0.660156H8.58496V19.1507H15.8491V0.660156Z" fill="black"/>
</g>
<defs>
<clipPath id="clip0_536_4">
<rect width="140" height="24.434" fill="white"/>
</clipPath>
</defs>
</svg>
